<svg width="100" height="100" viewBox="0 0 100 100" fill="none" xmlns="http://www.w3.org/2000/svg">
<rect width="100" height="100" rx="10" fill="white"/>
<path d="M76.3875 39.5L52.9875 23.925V37.8375L65.9375 46.475L76.3875 39.5ZM50 43.0125L39.4375 50.0625L50 57.1125L60.5625 50.0625L50 43.0125ZM52.9875 62.2875V76.2L76.3875 60.625L65.9375 53.65L52.9875 62.2875ZM34.0625 53.65L23.6125 60.625L47.0125 76.2V62.2875L34.0625 53.65ZM96 0H4C1.7875 0 0 1.7875 0 4V96C0 98.2125 1.7875 100 4 100H96C98.2125 100 100 98.2125 100 96V4C100 1.7875 98.2125 0 96 0ZM84.75 60.625C84.75 60.7625 84.7375 60.8875 84.725 61.0125C84.725 61.0625 84.7125 61.1 84.7 61.1375C84.6824 61.2743 84.6488 61.4085 84.6 61.5375C84.575 61.6125 84.55 61.6875 84.525 61.75C84.5 61.8 84.475 61.85 84.4625 61.9C84.425 61.9625 84.4 62.0375 84.3625 62.1C84.3375 62.15 84.3125 62.1875 84.275 62.2375C84.2375 62.3 84.1875 62.3625 84.15 62.425C84.1125 62.475 84.0875 62.5125 84.05 62.55C84 62.6 83.95 62.6625 83.9 62.7125C83.8625 62.75 83.825 62.7875 83.775 62.825C83.725 62.875 83.6625 62.925 83.6 62.9625C83.55 63 83.5125 63.0375 83.4625 63.0625C83.45 63.075 83.425 63.0875 83.4125 63.1L51.65 84.25C51.15 84.5875 50.575 84.75 50 84.75C49.4125 84.75 48.8375 84.575 48.3375 84.25L16.575 63.1125C16.5625 63.1 16.5375 63.0875 16.525 63.075L16.3875 62.975C16.325 62.925 16.275 62.8875 16.225 62.8375C16.1875 62.8 16.15 62.7625 16.1 62.725C16.05 62.675 16 62.625 15.95 62.5625C15.9129 62.524 15.8794 62.4821 15.85 62.4375C15.8 62.375 15.7625 62.3125 15.725 62.25C15.7 62.2 15.6625 62.1625 15.6375 62.1125C15.6 62.05 15.5625 61.975 15.5375 61.9125C15.5125 61.8625 15.4875 61.8125 15.475 61.7625C15.45 61.6875 15.425 61.6125 15.4 61.55C15.3875 61.5 15.3625 61.45 15.35 61.4C15.325 61.3125 15.3125 61.2375 15.3 61.15C15.2875 61.1125 15.2875 61.0625 15.275 61.025C15.2625 60.9 15.25 60.7625 15.25 60.6375V39.4875C15.25 39.3625 15.2625 39.225 15.275 39.1C15.2875 39.0625 15.2875 39.0125 15.3 38.975C15.3176 38.8382 15.3512 38.704 15.4 38.575C15.425 38.5 15.45 38.425 15.475 38.3625C15.5 38.3125 15.525 38.2625 15.5375 38.2125C15.5625 38.15 15.6 38.075 15.6375 38.0125C15.6625 37.9625 15.6875 37.925 15.725 37.875C15.8 37.7625 15.875 37.6625 15.95 37.5625C16 37.5125 16.05 37.45 16.1 37.4C16.1375 37.3625 16.175 37.325 16.225 37.2875C16.275 37.2375 16.3375 37.1875 16.3875 37.15C16.4375 37.1125 16.475 37.075 16.525 37.05C16.5375 37.0375 16.5625 37.025 16.575 37.0125L48.3375 15.875C49.3375 15.2125 50.65 15.2125 51.65 15.875L83.4125 37.0125C83.425 37.025 83.45 37.0375 83.4625 37.05L83.6 37.15L83.775 37.2875C83.8125 37.325 83.85 37.3625 83.9 37.4C83.95 37.45 84 37.5 84.05 37.5625C84.1375 37.6625 84.2125 37.7625 84.275 37.875C84.3 37.925 84.3375 37.9625 84.3625 38.0125C84.4 38.075 84.4375 38.1375 84.4625 38.2125C84.4875 38.2625 84.5125 38.3125 84.525 38.3625C84.55 38.4375 84.575 38.5125 84.6 38.575C84.6125 38.625 84.6375 38.675 84.65 38.725C84.675 38.8125 84.6875 38.8875 84.7 38.975C84.7125 39.0125 84.7125 39.0625 84.725 39.1C84.7375 39.225 84.75 39.3625 84.75 39.4875V60.625ZM78.775 55.05V45.075L71.3 50.0625L78.775 55.05ZM21.225 45.075V55.05L28.7 50.0625L21.225 45.075ZM47.0125 37.8375V23.925L23.6125 39.5L34.0625 46.475L47.0125 37.8375Z" fill="#6566FF"/>
</svg>
