<svg width="100" height="100" viewBox="0 0 100 100" fill="none" xmlns="http://www.w3.org/2000/svg">
<rect width="100" height="100" rx="10" fill="#6566FF"/>
<path d="M76.4949 25.7388C71.6318 23.5068 66.4997 21.9153 61.2271 21.0041C61.1791 20.9949 61.1295 21.0012 61.0853 21.022C61.0411 21.0428 61.0046 21.077 60.981 21.1198C60.2809 22.3888 59.6453 23.6923 59.0766 25.0254C53.3934 24.1623 47.6125 24.1623 41.9293 25.0254C41.358 23.689 40.7134 22.3852 39.9985 21.1198C39.974 21.0779 39.9373 21.0444 39.8934 21.0238C39.8495 21.0031 39.8003 20.9963 39.7524 21.0041C34.4813 21.9138 29.351 23.5054 24.4905 25.7388C24.4486 25.7564 24.4133 25.7866 24.3894 25.8253C14.6665 40.3532 12.0033 54.5237 13.31 68.5154C13.3137 68.5498 13.3243 68.5831 13.3412 68.6133C13.3581 68.6435 13.3808 68.67 13.4081 68.6912C19.0699 72.8853 25.4032 76.0869 32.1376 78.1592C32.1851 78.1734 32.2358 78.1728 32.2829 78.1573C32.3301 78.1419 32.3714 78.1124 32.4013 78.0728C33.8472 76.1043 35.1285 74.0199 36.2321 71.8409C36.2472 71.811 36.2557 71.7782 36.2572 71.7448C36.2587 71.7113 36.2531 71.678 36.2408 71.6468C36.2285 71.6157 36.2098 71.5875 36.1858 71.5642C36.1618 71.5408 36.1332 71.5228 36.1017 71.5113C34.0809 70.7394 32.1245 69.8087 30.2507 68.7279C30.2167 68.7079 30.1881 68.6798 30.1675 68.6461C30.147 68.6125 30.135 68.5743 30.1327 68.5349C30.1304 68.4955 30.1378 68.4561 30.1543 68.4203C30.1708 68.3845 30.1958 68.3532 30.2273 68.3294C30.6199 68.0364 31.0139 67.7288 31.389 67.4182C31.4223 67.3909 31.4625 67.3734 31.5052 67.3677C31.5479 67.362 31.5914 67.3683 31.6307 67.386C43.9055 72.9909 57.1956 72.9909 69.3254 67.386C69.365 67.367 69.4091 67.3597 69.4527 67.3649C69.4963 67.3701 69.5375 67.3875 69.5715 67.4153C69.9465 67.7244 70.3406 68.0349 70.7435 68.3294C70.775 68.353 70.8003 68.3841 70.817 68.4198C70.8338 68.4555 70.8415 68.4947 70.8394 68.5341C70.8374 68.5735 70.8257 68.6117 70.8054 68.6455C70.7851 68.6793 70.7568 68.7076 70.7229 68.7279C68.8516 69.8191 66.8914 70.7503 64.8631 71.5113C64.8315 71.5232 64.8028 71.5417 64.7788 71.5655C64.7549 71.5894 64.7363 71.618 64.7242 71.6496C64.7122 71.6812 64.707 71.7149 64.709 71.7487C64.7109 71.7824 64.72 71.8153 64.7357 71.8453C65.8577 74.0124 67.1371 76.0943 68.5636 78.0743C68.5925 78.115 68.6336 78.1456 68.681 78.1617C68.7283 78.1777 68.7795 78.1784 68.8273 78.1636C75.5709 76.0973 81.9123 72.8953 87.5787 68.6956C87.6064 68.6755 87.6296 68.6496 87.6465 68.6198C87.6634 68.59 87.6738 68.5569 87.6768 68.5228C89.2414 52.3438 85.0575 38.2891 76.5871 25.8311C76.5682 25.7904 76.5355 25.7578 76.4949 25.7388ZM38.0633 59.9967C34.3672 59.9967 31.3245 56.6039 31.3245 52.4376C31.3245 48.2713 34.3101 44.8784 38.0633 44.8784C41.8473 44.8784 44.8636 48.3006 44.8021 52.4376C44.805 56.6039 41.818 59.9967 38.0633 59.9967ZM62.9865 59.9967C59.2904 59.9967 56.2477 56.6039 56.2477 52.4376C56.2477 48.2713 59.2333 44.8784 62.9865 44.8784C66.7705 44.8784 69.7868 48.3006 69.7253 52.4376C69.7268 56.6039 66.7705 59.9967 62.9865 59.9967Z" fill="white"/>
</svg>
