<svg width="100" height="100" viewBox="0 0 100 100" fill="none" xmlns="http://www.w3.org/2000/svg">
<rect width="100" height="100" rx="10" fill="white"/>
<path d="M5.5625 0H94.5C97.5625 0 100 2.4375 100 5.5V94.5C100 97.5 97.5625 100 94.5 100H69V61.25H82L83.9375 46.1875H69V36.5625C69 32.1875 70.25 29.1875 76.5 29.1875H84.5V15.6875C83.125 15.5 78.375 15.125 72.875 15.125C61.3125 15.125 53.4375 22.125 53.4375 35.0625V46.1875H40.375V61.25H53.4375V100H5.5625C2.5 100 0 97.5 0 94.5V5.5C0 2.4375 2.5 0 5.5625 0Z" fill="#6566FF"/>
</svg>
