<svg width="100" height="100" viewBox="0 0 100 100" fill="none" xmlns="http://www.w3.org/2000/svg">
<path d="M14.2857 0H85.7143C93.5714 0 100 6.42857 100 14.2857V85.7143C100 93.5714 93.5714 100 85.7143 100H14.2857C6.42857 100 0 93.5714 0 85.7143V14.2857C0 6.42857 6.42857 0 14.2857 0Z" fill="#6566FF"/>
<path d="M69.375 25.875C67.125 25.875 64.875 27.75 64.875 30.375C64.875 33 66.75 34.875 69.375 34.875C72 34.875 73.875 33 73.875 30.375C73.5 27.75 71.625 25.875 69.375 25.875Z" fill="white"/>
<path d="M49.5 31.5C39.375 31.5 31.125 39.75 31.125 49.875C31.125 60 39.375 68.25 49.5 68.25C59.625 68.25 67.875 60 67.875 49.875C68.25 39.75 60 31.5 49.5 31.5ZM49.5 61.875C43.125 61.875 37.5 56.625 37.5 49.875C37.5 43.5 42.75 37.875 49.5 37.875C55.875 37.875 61.5 43.125 61.5 49.875C61.5 56.625 56.25 61.875 49.5 61.875Z" fill="white"/>
<path d="M64.5 12H34.5C22.125 12 12 22.125 12 34.5V64.5C12 76.875 22.125 87 34.5 87H64.5C76.875 87 87 76.875 87 64.5V34.5C87 22.125 76.875 12 64.5 12ZM79.875 64.5C79.875 73.125 72.75 79.875 64.5 79.875H34.5C25.875 79.875 19.125 72.75 19.125 64.5V34.5C19.125 25.875 26.25 19.125 34.5 19.125H64.5C73.125 19.125 79.875 26.25 79.875 34.5V64.5Z" fill="white"/>
</svg>
