<svg width="100" height="100" viewBox="0 0 100 100" fill="none" xmlns="http://www.w3.org/2000/svg">
<path d="M85.2083 85.2085H70.3917V62.0001C70.3917 56.4668 70.2917 49.3418 62.6833 49.3418C54.9667 49.3418 53.7833 55.3751 53.7833 61.5918V85.2085H38.9667V37.4835H53.1917V44.0085H53.3917C56.2917 39.0585 61.6917 36.0918 67.425 36.3001C82.4417 36.3001 85.2167 46.1751 85.2167 59.0335L85.2083 85.2001V85.2085ZM22.25 30.9585C19.9739 30.9475 17.7941 30.0391 16.1839 28.4304C14.5737 26.8218 13.6631 24.6428 13.65 22.3668C13.65 17.6501 17.5333 13.7668 22.25 13.7668C26.9667 13.7668 30.8417 17.6501 30.85 22.3668C30.85 27.0835 26.9667 30.9585 22.25 30.9585ZM29.6583 85.2085H14.825V37.4835H29.6583V85.2085ZM92.5833 0.00012386H7.375C5.44292 -0.011098 3.58448 0.740621 2.20353 2.09193C0.822574 3.44323 0.0307055 5.28492 0 7.21679V92.7835C0.0307055 94.7153 0.822574 96.557 2.20353 97.9083C3.58448 99.2596 5.44292 100.011 7.375 100H92.5917C94.5282 100.016 96.3927 99.2666 97.7799 97.9153C99.1671 96.5639 99.9649 94.7197 100 92.7835V7.20846C99.9649 5.27368 99.1665 3.4312 97.7788 2.08253C96.3912 0.733863 94.5267 -0.0116521 92.5917 0.00845659L92.5833 0.00012386Z" fill="#6566FF"/>
</svg>
