<svg width="100" height="100" viewBox="0 0 100 100" fill="none" xmlns="http://www.w3.org/2000/svg">
<g clip-path="url(#clip0_2182_326)">
<path d="M85 0H15C6.71573 0 0 6.71573 0 15V85C0 93.2843 6.71573 100 15 100H85C93.2843 100 100 93.2843 100 85V15C100 6.71573 93.2843 0 85 0Z" fill="#6566FF"/>
<path d="M38.8672 78.9062C36.7188 78.9062 36.9141 78.125 36.3281 76.1719L30.0781 55.6641L77.9297 27.5391" fill="#C8DAEA"/>
<path d="M38.8672 78.9062C40.2344 78.9062 41.0156 78.125 41.9922 77.3438L50.7812 68.9453L39.8438 62.3047" fill="#A9C9DD"/>
<path d="M39.8438 62.3047L66.211 81.6406C68.9454 83.3984 71.2891 82.4219 72.0704 78.9063L82.8125 28.5156C83.7891 24.2188 81.0547 22.2656 78.125 23.6328L15.4297 47.8516C11.3282 49.4141 11.3282 51.9531 14.6485 52.9297L30.8594 58.0078L67.9688 34.375C69.7266 33.3984 71.2891 33.7891 70.1172 35.1563" fill="#F6FBFE"/>
</g>
<defs>
<clipPath id="clip0_2182_326">
<rect width="100" height="100" fill="white"/>
</clipPath>
</defs>
</svg>
