<svg width="101" height="101" viewBox="0 0 101 101" fill="none" xmlns="http://www.w3.org/2000/svg">
<path d="M90.6667 0.666748H10.6667C5.16675 0.666748 0.666748 5.16675 0.666748 10.6667V90.6667C0.666748 96.1667 5.16675 100.667 10.6667 100.667H90.6667C96.1667 100.667 100.667 96.1667 100.667 90.6667V10.6667C100.667 5.16675 96.1667 0.666748 90.6667 0.666748ZM78.6667 34.6667C78.6667 35.1667 78.6667 35.6667 78.6667 36.6667C78.6667 55.6667 64.1667 77.6667 37.6667 77.6667C29.6667 77.6667 22.1667 75.1668 15.6667 71.1667C16.6667 71.1667 18.1667 71.1667 19.1667 71.1667C25.6667 71.1667 32.1667 68.6667 37.1667 65.1667C30.6667 65.1667 25.6667 60.6667 23.6667 55.1667C24.6667 55.1667 25.6667 55.6667 26.1667 55.6667C27.6667 55.6667 28.6667 55.6667 30.1667 55.1667C23.6667 53.6667 18.6667 48.1667 18.6667 41.1667C20.6667 42.1667 22.6667 42.6667 25.1667 43.1667C21.1667 39.6667 18.6667 35.6667 18.6667 30.6667C18.6667 28.1667 19.1667 25.6667 20.6667 23.6667C27.6667 32.1667 38.1667 38.1667 50.1667 38.6667C50.1667 37.6667 49.6667 36.6667 49.6667 35.1667C49.6667 27.1667 56.1667 20.6667 64.1667 20.6667C68.1667 20.6667 72.1667 22.1667 74.6667 25.1667C78.1667 24.6667 81.1667 23.1667 83.6667 21.6667C82.6667 25.1667 80.1667 27.6667 77.1667 29.6667C80.1667 29.1667 82.6667 28.6667 85.6667 27.1667C83.6667 30.1667 81.1667 32.6667 78.6667 34.6667Z" fill="#6566FF"/>
</svg>
