<svg width="100" height="100" viewBox="0 0 100 100" fill="none" xmlns="http://www.w3.org/2000/svg">
<rect width="100" height="100" rx="10" fill="white"/>
<path d="M90 0H10C4.5 0 0 4.5 0 10V90C0 95.5 4.5 100 10 100H90C95.5 100 100 95.5 100 90V10C100 4.5 95.5 0 90 0ZM78 34C78 34.5 78 35 78 36C78 55 63.5 77 37 77C29 77 21.5 74.5 15 70.5C16 70.5 17.5 70.5 18.5 70.5C25 70.5 31.5 68 36.5 64.5C30 64.5 25 60 23 54.5C24 54.5 25 55 25.5 55C27 55 28 55 29.5 54.5C23 53 18 47.5 18 40.5C20 41.5 22 42 24.5 42.5C20.5 39 18 35 18 30C18 27.5 18.5 25 20 23C27 31.5 37.5 37.5 49.5 38C49.5 37 49 36 49 34.5C49 26.5 55.5 20 63.5 20C67.5 20 71.5 21.5 74 24.5C77.5 24 80.5 22.5 83 21C82 24.5 79.5 27 76.5 29C79.5 28.5 82 28 85 26.5C83 29.5 80.5 32 78 34Z" fill="#6566FF"/>
</svg>
