<svg width="100" height="100" viewBox="0 0 512 512" fill="none" xmlns="http://www.w3.org/2000/svg">
<g clip-path="url(#clip0_2182_322)">
<path d="M435.2 0H76.8C34.3845 0 0 34.3845 0 76.8V435.2C0 477.615 34.3845 512 76.8 512H435.2C477.615 512 512 477.615 512 435.2V76.8C512 34.3845 477.615 0 435.2 0Z" fill="#6566FF"/>
<path d="M123 393L137 328C119.006 299.618 111.986 265.646 117.258 232.457C122.53 199.268 139.732 169.143 165.635 147.735C191.538 126.326 224.363 115.105 257.951 116.177C291.539 117.249 323.582 130.54 348.067 153.556C372.553 176.573 387.798 207.733 390.944 241.19C394.089 274.648 384.918 308.104 365.151 335.28C345.384 362.457 316.38 381.487 283.58 388.8C250.78 396.113 216.439 391.206 187 375L123 393Z" fill="#6566FF" stroke="white" stroke-width="26"/>
<path d="M308 273C305 271 302 270 299 274L287 290C284 292 282 293 278 291C263 283 242 274 224 244C223 240 225 238 227 236L236 222C238 220 237 218 236 216L224 187C221 179 218 180 215 180H207C205 180 201 181 197 185C175 207 184 238 200 258C203 262 223 298 266 317C298 331 305 329 314 327C325 326 336 317 341 308C342 305 347 292 343 290" fill="white"/>
</g>
<defs>
<clipPath id="clip0_2182_322">
<rect width="512" height="512" fill="white"/>
</clipPath>
</defs>
</svg>
